<?xml version="1.0" encoding="UTF-8" standalone="no"?><!DOCTYPE svg PUBLIC "-//W3C//DTD SVG 1.1//EN" "http://www.w3.org/Graphics/SVG/1.1/DTD/svg11.dtd"><svg width="100%" height="100%" viewBox="0 0 842 284" version="1.1" xmlns="http://www.w3.org/2000/svg" xmlns:xlink="http://www.w3.org/1999/xlink" xml:space="preserve" xmlns:serif="http://www.serif.com/" style="fill-rule:evenodd;clip-rule:evenodd;stroke-linecap:round;stroke-linejoin:round;stroke-miterlimit:1.5;"><g><path d="M501.017,58.231l-136.386,-7.776l3.144,135.131l136.386,7.776l-3.144,-135.131Z" style="fill:#ee5340;"/><path d="M501.017,58.231l3.144,135.131l-136.386,-7.776l-3.144,-135.131l136.386,7.776Zm-132.431,126.572l134.726,7.681l-3.106,-133.469l-134.726,-7.682l3.106,133.47Z" style="fill:#333;"/><path d="M487.566,71.088l-136.386,-7.776l3.144,135.131l136.386,7.776l-3.144,-135.131Z" style="fill:#f4633a;"/><path d="M487.566,71.088l3.144,135.131l-136.386,-7.776l-3.144,-135.131l136.386,7.776Zm-132.432,126.571l134.727,7.682l-3.106,-133.469l-134.726,-7.682l3.105,133.469Z" style="fill:#333;"/><path d="M239.097,29.674l-136.386,-7.776l3.145,135.131l136.386,7.776l-3.145,-135.131Z" style="fill:#715c2a;"/><path d="M239.097,29.674l3.145,135.131l-136.386,-7.776l-3.145,-135.131l136.386,7.776Zm-132.431,126.571l134.727,7.682l-3.106,-133.469l-134.727,-7.682l3.106,133.469Z" style="fill:#333;"/><path d="M225.646,42.531l-136.386,-7.776l3.145,135.131l136.386,7.776l-3.145,-135.131Z" style="fill:#cf7f00;"/><path d="M225.646,42.531l3.145,135.131l-136.386,-7.776l-3.145,-135.131l136.386,7.776Zm-132.431,126.571l134.727,7.682l-3.106,-133.47l-134.727,-7.681l3.106,133.469Z" style="fill:#333;"/><path d="M212.195,55.388l-136.386,-7.776l3.145,135.13l136.386,7.777l-3.145,-135.131Z" style="fill:#f1b434;"/><path d="M212.195,55.388l3.145,135.131l-136.386,-7.777l-3.145,-135.13l136.386,7.776Zm-132.431,126.571l134.727,7.682l-3.106,-133.47l-134.727,-7.681l3.106,133.469Z" style="fill:#333;"/><path d="M776.387,73.932l-136.386,-7.776l3.145,135.13l136.386,7.777l-3.145,-135.131Z" style="fill:#a51890;"/><path d="M776.387,73.932l3.145,135.131l-136.386,-7.777l-3.145,-135.13l136.386,7.776Zm-132.431,126.571l134.727,7.682l-3.106,-133.47l-134.727,-7.681l3.106,133.469Z" style="fill:#333;"/><path d="M762.936,86.789l-136.386,-7.776l3.145,135.13l136.385,7.776l-3.144,-135.13Z" style="fill:#bb16a3;"/><path d="M762.936,86.789l3.144,135.13l-136.385,-7.776l-3.145,-135.13l136.386,7.776Zm-132.431,126.571l134.727,7.681l-3.106,-133.469l-134.727,-7.681l3.106,133.469Z" style="fill:#333;"/><path d="M198.744,68.245l-136.386,-7.777l3.145,135.131l136.386,7.776l-3.145,-135.13Z" style="fill:#f2c75c;"/><path d="M198.744,68.245l3.145,135.13l-136.386,-7.776l-3.145,-135.131l136.386,7.777Zm-132.431,126.571l134.727,7.681l-3.106,-133.469l-134.727,-7.682l3.106,133.47Z" style="fill:#333;"/><path d="M474.114,83.945l-136.385,-7.776l3.144,135.131l136.386,7.776l-3.145,-135.131Z" style="fill:#ff8a3d;"/><path d="M474.114,83.945l3.145,135.131l-136.386,-7.776l-3.144,-135.131l136.385,7.776Zm-132.431,126.571l134.727,7.682l-3.106,-133.47l-134.726,-7.681l3.105,133.469Z" style="fill:#333;"/><path d="M749.485,99.646l-136.386,-7.777l3.145,135.131l136.385,7.776l-3.144,-135.13Z" style="fill:#dd7fd3;"/><path d="M749.485,99.646l3.144,135.13l-136.385,-7.776l-3.145,-135.131l136.386,7.777Zm-132.431,126.571l134.726,7.681l-3.105,-133.469l-134.727,-7.682l3.106,133.47Z" style="fill:#333;"/><path d="M206.331,141.185l0.551,-9.888l89.248,4.971l0.826,-14.833l38.452,21.98l-40.655,17.574l0.827,-14.833l-89.249,-4.971Z" style="fill:#878787;stroke:#0d0d0d;stroke-width:4.8px;"/><path d="M481.654,156.097l0.551,-9.889l89.248,4.971l0.827,-14.832l38.452,21.98l-40.655,17.573l0.826,-14.832l-89.249,-4.971Z" style="fill:#878787;stroke:#0d0d0d;stroke-width:4.8px;"/><g transform="matrix(0.998686,0.051246,-0.051246,0.998686,-52.3762,66.6683)"><text x="123.571px" y="59.793px" style="font-family:'Montserrat-Regular', 'Montserrat';font-size:18.844px;">Impr<tspan x="168.515px 180.631px " y="59.793px 59.793px ">ov</tspan>e Laga</text></g><g transform="matrix(0.998686,0.051246,-0.051246,0.998686,-56.1652,66.1899)"><text x="134.129px" y="-14.334px" style="font-family:'Montserrat-Regular', 'Montserrat';font-size:11px;">c<tspan x="140.357px " y="-14.334px ">o</tspan>de</text></g><g transform="matrix(0.998686,0.051246,-0.051246,0.998686,-54.9816,51.9228)"><text x="412.942px" y="1.612px" style="font-family:'Montserrat-Regular', 'Montserrat';font-size:11px;">ideas - te<tspan x="464.941px " y="1.612px ">c</tspan>hnology</text></g><g transform="matrix(0.998686,0.051246,-0.051246,0.998686,-55.6902,51.2567)"><text x="425.577px" y="-12.539px" style="font-family:'Montserrat-Regular', 'Montserrat';font-size:11px;">projects</text></g><g transform="matrix(0.998686,0.051246,-0.051246,0.998686,-53.8156,37.9536)"><text x="685.937px" y="17.367px" style="font-family:'Montserrat-Regular', 'Montserrat';font-size:11px;">f<tspan x="690.049px " y="17.367px ">o</tspan>rum</text></g><g transform="matrix(0.998686,0.051246,-0.051246,0.998686,-54.4766,37.3002)"><text x="698.348px" y="4.149px" style="font-family:'Montserrat-Regular', 'Montserrat';font-size:11px;">education</text></g><g transform="matrix(0.998686,0.051246,-0.051246,0.998686,-56.8224,65.447)"><text x="148.286px" y="-27.522px" style="font-family:'Montserrat-Regular', 'Montserrat';font-size:10px;">web - doc<tspan x="199.657px " y="-27.522px ">u</tspan>mentation</text></g><g transform="matrix(0.998686,0.051246,-0.051246,0.998686,-57.4578,64.7131)"><text x="162.282px" y="-40.281px" style="font-family:'Montserrat-Regular', 'Montserrat';font-size:10px;">tutorials</text></g><g transform="matrix(0.998686,0.051246,-0.051246,0.998686,-51.1016,51.8183)"><text x="398.373px" y="77.224px" style="font-family:'Montserrat-Regular', 'Montserrat';font-size:18.844px;">Engage users</text></g><g transform="matrix(0.998686,0.051246,-0.051246,0.998686,-50.0347,38.1142)"><text x="681.573px" y="91.178px" style="font-family:'Montserrat-Regular', 'Montserrat';font-size:18.844px;">c<tspan x="692.22px " y="91.178px ">o</tspan>mmunity</text></g><path d="M120.416,220.824l-7.864,-15.73l-7.866,15.729l15.73,0.001Z" style="fill:#3c3c3c;"/><path d="M112.551,217.678c0,9.702 -0.001,21.475 -0.001,21.475l544.652,31.053l0.793,-34.014" style="fill:none;stroke:#3c3c3c;stroke-width:4.63px;"/></g></svg>