<?xml version="1.0" encoding="UTF-8" standalone="no"?><!DOCTYPE svg PUBLIC "-//W3C//DTD SVG 1.1//EN" "http://www.w3.org/Graphics/SVG/1.1/DTD/svg11.dtd"><svg width="100%" height="100%" viewBox="0 0 1191 842" version="1.1" xmlns="http://www.w3.org/2000/svg" xmlns:xlink="http://www.w3.org/1999/xlink" xml:space="preserve" xmlns:serif="http://www.serif.com/" style="fill-rule:evenodd;clip-rule:evenodd;stroke-linecap:round;"><g id="_2021-arch" serif:id="2021 arch"><path d="M706.714,208.229l-0,11.484l-335.827,-0c-4.711,-0 -7.067,2.355 -7.067,7.067l0,26.501" style="fill:none;fill-rule:nonzero;stroke:#434b54;stroke-width:1.77px;"/><path d="M363.82,294.269l0,11.484l113.358,0c4.711,0 7.067,2.356 7.067,7.067l-0,5.3" style="fill:none;fill-rule:nonzero;stroke:#434b54;stroke-width:1.77px;"/><path d="M484.245,352.042l-0,49.822c-0,4.711 2.356,7.067 7.067,7.067l1.767,0" style="fill:none;fill-rule:nonzero;stroke:#434b54;stroke-width:1.77px;"/><path d="M484.245,352.042l-0,81.093c-0,4.712 2.356,7.067 7.067,7.067l1.767,0" style="fill:none;fill-rule:nonzero;stroke:#434b54;stroke-width:1.77px;"/><path d="M363.82,294.269l0,11.484l244.453,0c4.711,0 7.067,2.356 7.067,7.067l-0,5.3" style="fill:none;fill-rule:nonzero;stroke:#434b54;stroke-width:1.77px;"/><path d="M615.34,352.042l-0,49.822c-0,4.711 2.355,7.067 7.067,7.067l1.767,0" style="fill:none;fill-rule:nonzero;stroke:#434b54;stroke-width:1.77px;"/><path d="M615.34,352.042l-0,81.093c-0,4.712 2.355,7.067 7.067,7.067l1.767,0" style="fill:none;fill-rule:nonzero;stroke:#434b54;stroke-width:1.77px;"/><path d="M363.82,294.269l0,11.484l-244.453,0c-4.711,0 -7.066,2.356 -7.066,7.067l-0,5.3" style="fill:none;fill-rule:nonzero;stroke:#434b54;stroke-width:1.77px;"/><path d="M112.301,352.042l-0,49.822c-0,4.711 2.355,7.067 7.066,7.067l1.767,0" style="fill:none;fill-rule:nonzero;stroke:#434b54;stroke-width:1.77px;"/><path d="M112.301,352.042l-0,81.093c-0,4.712 2.355,7.067 7.066,7.067l1.767,0" style="fill:none;fill-rule:nonzero;stroke:#434b54;stroke-width:1.77px;"/><path d="M112.301,352.042l-0,112.365c-0,4.711 2.355,7.067 7.066,7.067l1.767,-0" style="fill:none;fill-rule:nonzero;stroke:#434b54;stroke-width:1.77px;"/><path d="M112.301,352.042l-0,143.636c-0,4.711 2.355,7.067 7.066,7.067l1.767,0" style="fill:none;fill-rule:nonzero;stroke:#434b54;stroke-width:1.77px;"/><path d="M112.301,352.042l-0,174.907c-0,4.712 2.355,7.067 7.066,7.067l1.767,0" style="fill:none;fill-rule:nonzero;stroke:#434b54;stroke-width:1.77px;"/><path d="M112.301,352.042l-0,206.179c-0,4.711 2.355,7.067 7.066,7.067l1.767,-0" style="fill:none;fill-rule:nonzero;stroke:#434b54;stroke-width:1.77px;"/><path d="M112.301,352.042l-0,237.45c-0,4.712 2.355,7.067 7.066,7.067l1.767,0" style="fill:none;fill-rule:nonzero;stroke:#434b54;stroke-width:1.77px;"/><path d="M112.301,352.042l-0,268.722c-0,4.711 2.355,7.067 7.066,7.067l1.767,-0" style="fill:none;fill-rule:nonzero;stroke:#434b54;stroke-width:1.77px;"/><path d="M112.301,352.042l-0,299.993c-0,4.711 2.355,7.067 7.066,7.067l1.767,-0" style="fill:none;fill-rule:nonzero;stroke:#434b54;stroke-width:1.77px;"/><path d="M112.301,352.042l-0,331.264c-0,4.712 2.355,7.067 7.066,7.067l1.767,0" style="fill:none;fill-rule:nonzero;stroke:#434b54;stroke-width:1.77px;"/><path d="M363.82,294.269l0,11.484l-54.859,0c-4.711,0 -7.067,2.356 -7.067,7.067l0,5.3" style="fill:none;fill-rule:nonzero;stroke:#434b54;stroke-width:1.77px;"/><path d="M301.894,352.042l0,49.822c0,4.711 2.356,7.067 7.067,7.067l1.767,0" style="fill:none;fill-rule:nonzero;stroke:#434b54;stroke-width:1.77px;"/><path d="M301.894,352.042l0,81.093c0,4.712 2.356,7.067 7.067,7.067l1.767,0" style="fill:none;fill-rule:nonzero;stroke:#434b54;stroke-width:1.77px;"/><path d="M301.894,352.042l0,112.365c0,4.711 2.356,7.067 7.067,7.067l1.767,-0" style="fill:none;fill-rule:nonzero;stroke:#434b54;stroke-width:1.77px;"/><path d="M301.894,352.042l0,143.636c0,4.711 2.356,7.067 7.067,7.067l1.767,0" style="fill:none;fill-rule:nonzero;stroke:#434b54;stroke-width:1.77px;"/><path d="M706.714,208.229l-0,11.484l335.827,-0c4.711,-0 7.067,2.355 7.067,7.067l-0,26.501" style="fill:none;fill-rule:nonzero;stroke:#434b54;stroke-width:1.77px;"/><path d="M1049.61,294.269l-0,49.823c-0,4.711 2.355,7.066 7.067,7.066l1.767,0" style="fill:none;fill-rule:nonzero;stroke:#434b54;stroke-width:1.77px;"/><path d="M1049.61,294.269l-0,79.327c-0,4.711 2.355,7.067 7.067,7.067l1.767,0" style="fill:none;fill-rule:nonzero;stroke:#434b54;stroke-width:1.77px;"/><path d="M1049.61,294.269l-0,108.832c-0,4.711 2.355,7.067 7.067,7.067l1.767,-0" style="fill:none;fill-rule:nonzero;stroke:#434b54;stroke-width:1.77px;"/><path d="M706.714,208.229l-0,11.484l88.613,-0c4.711,-0 7.067,2.355 7.067,7.067l-0,26.501" style="fill:none;fill-rule:nonzero;stroke:#434b54;stroke-width:1.77px;"/><path d="M802.394,294.269l-0,49.823c-0,4.711 2.355,7.066 7.067,7.066l1.766,0" style="fill:none;fill-rule:nonzero;stroke:#434b54;stroke-width:1.77px;"/><path d="M802.394,294.269l-0,79.327c-0,4.711 2.355,7.067 7.067,7.067l1.766,0" style="fill:none;fill-rule:nonzero;stroke:#434b54;stroke-width:1.77px;"/><path d="M802.394,294.269l-0,108.832c-0,4.711 2.355,7.067 7.067,7.067l1.766,-0" style="fill:none;fill-rule:nonzero;stroke:#434b54;stroke-width:1.77px;"/><path d="M802.394,294.269l-0,138.336c-0,4.712 2.355,7.067 7.067,7.067l1.766,0" style="fill:none;fill-rule:nonzero;stroke:#434b54;stroke-width:1.77px;"/><path d="M802.394,294.269l-0,167.841c-0,4.711 2.355,7.067 7.067,7.067l1.766,-0" style="fill:none;fill-rule:nonzero;stroke:#434b54;stroke-width:1.77px;"/><path d="M556.608,151.516l300.212,0c2.945,0 4.417,1.473 4.417,4.417l-0,46.996c-0,2.944 -1.472,4.417 -4.417,4.417l-300.212,-0c-2.945,-0 -4.417,-1.473 -4.417,-4.417l0,-46.996c0,-2.944 1.472,-4.417 4.417,-4.417" style="fill:#ff535c;fill-rule:nonzero;stroke:#434b54;stroke-width:1.77px;stroke-linecap:butt;"/><rect x="294.173" y="294.269" width="139.294" height="22.968" style="fill-opacity:0;"/><path d="M299.474,253.281l128.693,-0c2.944,-0 4.417,1.472 4.417,4.417l-0,31.271c-0,2.945 -1.473,4.417 -4.417,4.417l-128.693,0c-2.945,0 -4.417,-1.472 -4.417,-4.417l-0,-31.271c-0,-2.945 1.472,-4.417 4.417,-4.417" style="fill:#faeaea;fill-rule:nonzero;stroke:#434b54;stroke-width:1.77px;stroke-linecap:butt;"/><rect x="423.084" y="352.042" width="122.322" height="22.968" style="fill-opacity:0;"/><path d="M428.384,318.12l111.722,0c2.944,0 4.417,1.473 4.417,4.417l-0,24.205c-0,2.944 -1.473,4.416 -4.417,4.416l-111.722,0c-2.945,0 -4.417,-1.472 -4.417,-4.416l0,-24.205c0,-2.944 1.472,-4.417 4.417,-4.417" style="fill:#eddeed;fill-rule:nonzero;stroke:#434b54;stroke-width:1.77px;stroke-linecap:butt;"/><path d="M493.079,408.931l56.553,0l-56.553,0Z" style="fill:none;fill-rule:nonzero;stroke:#434b54;stroke-width:1.77px;stroke-linecap:butt;"/><path d="M493.079,440.202l40.287,0l-40.287,0Z" style="fill:none;fill-rule:nonzero;stroke:#434b54;stroke-width:1.77px;stroke-linecap:butt;"/><rect x="556.699" y="352.042" width="117.282" height="22.968" style="fill-opacity:0;"/><path d="M561.999,318.12l106.681,0c2.945,0 4.417,1.473 4.417,4.417l0,24.205c0,2.944 -1.472,4.416 -4.417,4.416l-106.681,0c-2.944,0 -4.417,-1.472 -4.417,-4.416l0,-24.205c0,-2.944 1.473,-4.417 4.417,-4.417" style="fill:#eddeed;fill-rule:nonzero;stroke:#434b54;stroke-width:1.77px;stroke-linecap:butt;"/><path d="M624.174,408.931l48.205,0l-48.205,0Z" style="fill:none;fill-rule:nonzero;stroke:#434b54;stroke-width:1.77px;stroke-linecap:butt;"/><path d="M624.174,440.202l54.47,0l-54.47,0Z" style="fill:none;fill-rule:nonzero;stroke:#434b54;stroke-width:1.77px;stroke-linecap:butt;"/><rect x="22.677" y="352.042" width="179.247" height="22.968" style="fill-opacity:0;"/><path d="M27.977,318.12l168.647,0c2.944,0 4.416,1.473 4.416,4.417l0,24.205c0,2.944 -1.472,4.416 -4.416,4.416l-168.647,0c-2.944,0 -4.416,-1.472 -4.416,-4.416l-0,-24.205c-0,-2.944 1.472,-4.417 4.416,-4.417" style="fill:#eddeed;fill-rule:nonzero;stroke:#434b54;stroke-width:1.77px;stroke-linecap:butt;"/><path d="M121.134,408.931l134.022,0l-134.022,0Z" style="fill:none;fill-rule:nonzero;stroke:#434b54;stroke-width:1.77px;stroke-linecap:butt;"/><path d="M121.134,440.202l139.969,0l-139.969,0Z" style="fill:none;fill-rule:nonzero;stroke:#434b54;stroke-width:1.77px;stroke-linecap:butt;"/><path d="M121.134,471.474l115.259,-0l-115.259,-0Z" style="fill:none;fill-rule:nonzero;stroke:#434b54;stroke-width:1.77px;stroke-linecap:butt;"/><path d="M121.134,502.745l121.206,0l-121.206,0Z" style="fill:none;fill-rule:nonzero;stroke:#434b54;stroke-width:1.77px;stroke-linecap:butt;"/><path d="M121.134,534.016l110.298,0l-110.298,0Z" style="fill:none;fill-rule:nonzero;stroke:#434b54;stroke-width:1.77px;stroke-linecap:butt;"/><path d="M121.134,565.288l73.679,-0l-73.679,-0Z" style="fill:none;fill-rule:nonzero;stroke:#434b54;stroke-width:1.77px;stroke-linecap:butt;"/><path d="M121.134,596.559l127.614,0l-127.614,0Z" style="fill:none;fill-rule:nonzero;stroke:#434b54;stroke-width:1.77px;stroke-linecap:butt;"/><path d="M121.134,627.831l99.215,-0l-99.215,-0Z" style="fill:none;fill-rule:nonzero;stroke:#434b54;stroke-width:1.77px;stroke-linecap:butt;"/><path d="M121.134,659.102l103.62,-0l-103.62,-0Z" style="fill:none;fill-rule:nonzero;stroke:#434b54;stroke-width:1.77px;stroke-linecap:butt;"/><path d="M121.134,690.373l114.035,0l-114.035,0Z" style="fill:none;fill-rule:nonzero;stroke:#434b54;stroke-width:1.77px;stroke-linecap:butt;"/><rect x="268.17" y="352.042" width="67.449" height="22.968" style="fill-opacity:0;"/><path d="M273.47,318.12l56.848,0c2.945,0 4.417,1.473 4.417,4.417l0,24.205c0,2.944 -1.472,4.416 -4.417,4.416l-56.848,0c-2.945,0 -4.417,-1.472 -4.417,-4.416l-0,-24.205c-0,-2.944 1.472,-4.417 4.417,-4.417" style="fill:#eddeed;fill-rule:nonzero;stroke:#434b54;stroke-width:1.77px;stroke-linecap:butt;"/><path d="M310.728,408.931l100.805,0l-100.805,0Z" style="fill:none;fill-rule:nonzero;stroke:#434b54;stroke-width:1.77px;stroke-linecap:butt;"/><path d="M310.728,440.202l94.286,0l-94.286,0Z" style="fill:none;fill-rule:nonzero;stroke:#434b54;stroke-width:1.77px;stroke-linecap:butt;"/><path d="M310.728,471.474l90.342,-0l-90.342,-0Z" style="fill:none;fill-rule:nonzero;stroke:#434b54;stroke-width:1.77px;stroke-linecap:butt;"/><path d="M310.728,502.745l105.289,0l-105.289,0Z" style="fill:none;fill-rule:nonzero;stroke:#434b54;stroke-width:1.77px;stroke-linecap:butt;"/><rect x="960.284" y="294.269" width="178.648" height="22.968" style="fill-opacity:0;"/><path d="M965.584,253.281l168.047,-0c2.945,-0 4.417,1.472 4.417,4.417l0,31.271c0,2.945 -1.472,4.417 -4.417,4.417l-168.047,0c-2.944,0 -4.417,-1.472 -4.417,-4.417l0,-31.271c0,-2.945 1.473,-4.417 4.417,-4.417" style="fill:#faeaea;fill-rule:nonzero;stroke:#434b54;stroke-width:1.77px;stroke-linecap:butt;"/><path d="M1058.44,351.158l40.287,0l-40.287,0Z" style="fill:none;fill-rule:nonzero;stroke:#434b54;stroke-width:1.77px;stroke-linecap:butt;"/><rect x="1015.2" y="380.663" width="134.039" height="22.968" style="fill-opacity:0;"/><path d="M1058.44,380.663l47.553,0l-47.553,0Z" style="fill:none;fill-rule:nonzero;stroke:#434b54;stroke-width:1.77px;stroke-linecap:butt;"/><path d="M1058.44,410.168l68.367,-0l-68.367,-0Z" style="fill:none;fill-rule:nonzero;stroke:#434b54;stroke-width:1.77px;stroke-linecap:butt;"/><rect x="711.329" y="294.269" width="182.13" height="22.968" style="fill-opacity:0;"/><path d="M716.629,253.281l171.53,-0c2.944,-0 4.416,1.472 4.416,4.417l0,31.271c0,2.945 -1.472,4.417 -4.416,4.417l-171.53,0c-2.945,0 -4.417,-1.472 -4.417,-4.417l0,-31.271c0,-2.945 1.472,-4.417 4.417,-4.417" style="fill:#faeaea;fill-rule:nonzero;stroke:#434b54;stroke-width:1.77px;stroke-linecap:butt;"/><g transform="matrix(1,0,0,1,-14.3202,0.348971)"><text x="593.026px" y="186.502px" style="font-family:'ArialMT', 'Arial', sans-serif;font-size:21.199px;fill:#fff;">L<tspan x="605.219px 619.761px 636.653px " y="186.502px 186.502px 186.502px ">AGA</tspan></text><text x="656.94px" y="186.502px" style="font-family:'ArialMT', 'Arial', sans-serif;font-size:21.199px;fill:#fff;">L<tspan x="669.133px 675.426px 689.968px 705.68px 720.222px " y="186.502px 186.502px 186.502px 186.502px 186.502px ">IBRAR</tspan>Y</text><text x="752.949px" y="186.502px" style="font-family:'ArialMT', 'Arial', sans-serif;font-size:21.199px;fill:#fff;">(<tspan x="760.411px 774.954px 787.146px 792.259px 804.452px 810.745px 815.857px 828.05px 840.243px " y="186.502px 186.502px 186.502px 186.502px 186.502px 186.502px 186.502px 186.502px 186.502px ">Solution)</tspan></text></g><g transform="matrix(1,0,0,1,-14.3202,0.348971)"><text x="326.167px" y="278.55px" style="font-family:'ArialMT', 'Arial', sans-serif;font-size:15.899px;fill:#494a46;">La<tspan x="344.047px 352.987px 361.927px 366.442px 371.835px 382.537px 387.93px 396.87px 400.5px 409.44px 417.488px " y="278.55px 278.55px 278.55px 278.55px 278.55px 278.55px 278.55px 278.55px 278.55px 278.55px 278.55px ">ga (Project</tspan></text><text x="424.518px" y="278.55px" style="font-family:'ArialMT', 'Arial', sans-serif;font-size:15.899px;fill:#494a46;">)</text></g><text x="430.156px" y="340.205px" style="font-family:'ArialMT', 'Arial', sans-serif;font-size:15.899px;fill:#494a46;">.<tspan x="434.738px 447.269px 456.275px 465.281px 478.69px 487.696px 492.277px 497.736px 505.85px 510.582px 516.041px 525.047px 533.161px " y="340.205px 340.205px 340.205px 340.205px 340.205px 340.205px 340.205px 340.205px 340.205px 340.205px 340.205px 340.205px 340.205px ">Geometry (ns)</tspan></text><g transform="matrix(1,0,0,1,-14.3202,0.348971)"><text x="512.699px" y="402.928px" style="font-family:'ArialMT', 'Arial', sans-serif;font-size:15.899px;fill:#494a46;">V<tspan x="522.538px 531.491px 539.552px 544.081px 553.035px " y="402.928px 402.928px 402.928px 402.928px 402.928px ">ector</tspan></text><text x="512.699px" y="434.197px" style="font-family:'ArialMT', 'Arial', sans-serif;font-size:15.899px;fill:#494a46;">Line</text></g><g transform="matrix(1,0,0,1,-14.3202,0.348971)"><text x="578.092px" y="339.856px" style="font-family:'ArialMT', 'Arial', sans-serif;font-size:15.899px;fill:#494a46;">.<tspan x="582.712px 594.396px 603.442px 616.888px 625.934px 634.979px 640.476px 648.629px 653.249px 658.746px 667.791px 675.944px " y="339.856px 339.856px 339.856px 339.856px 339.856px 339.856px 339.856px 339.856px 339.856px 339.856px 339.856px 339.856px ">Numbers (ns)</tspan></text><text x="643.794px" y="402.925px" style="font-family:'ArialMT', 'Arial', sans-serif;font-size:15.899px;fill:#494a46;">R<tspan x="655.003px 663.572px 672.142px " y="402.925px 402.925px 402.925px ">and</tspan></text><text x="643.794px" y="434.194px" style="font-family:'ArialMT', 'Arial', sans-serif;font-size:15.899px;fill:#494a46;">M<tspan x="657.26px 666.324px 670.964px 680.028px " y="434.194px 434.194px 434.194px 434.194px ">aths</tspan></text></g><text x="29.753px" y="340.205px" style="font-family:'ArialMT', 'Arial', sans-serif;font-size:15.899px;fill:#494a46;">.<tspan x="34.507px 47.211px 56.391px 65.57px 74.749px 79.504px 83.373px 91.66px 102.601px 106.471px 115.65px 124.829px 130.461px 134.33px 139.085px 148.264px 161.845px 166.821px 172.453px 181.632px 189.919px " y="340.205px 340.205px 340.205px 340.205px 340.205px 340.205px 340.205px 340.205px 340.205px 340.205px 340.205px 340.205px 340.205px 340.205px 340.205px 340.205px 340.205px 340.205px 340.205px 340.205px 340.205px ">GeneticAlgorithm (ns)</tspan></text><g transform="matrix(1,0,0,1,-14.3202,0.348971)"><text x="140.755px" y="402.928px" style="font-family:'ArialMT', 'Arial', sans-serif;font-size:15.899px;fill:#494a46;">Chr<tspan x="166.235px " y="402.928px ">o</tspan>mo<tspan x="197.025px " y="402.928px ">s</tspan>om<tspan x="226.923px " y="402.928px ">e</tspan>&lt;T<tspan x="254.623px " y="402.928px ">&gt;</tspan></text><text x="140.755px" y="434.197px" style="font-family:'ArialMT', 'Arial', sans-serif;font-size:15.899px;fill:#494a46;">Ge<tspan x="161.817px 170.586px 175.807px 187.216px 195.985px 201.206px 209.975px 223.145px 231.914px 239.791px 248.559px " y="434.197px 434.197px 434.197px 434.197px 434.197px 434.197px 434.197px 434.197px 434.197px 434.197px 434.197px ">nrChromosom</tspan>e</text><text x="140.755px" y="465.466px" style="font-family:'ArialMT', 'Arial', sans-serif;font-size:15.899px;fill:#494a46;">Po<tspan x="160.363px 169.287px 178.21px 181.823px 190.746px 195.244px 198.858px 207.781px 216.704px 226.07px 235.863px " y="465.466px 465.466px 465.466px 465.466px 465.466px 465.466px 465.466px 465.466px 465.466px 465.466px 465.466px ">pulation&lt;T&gt;</tspan></text><text x="140.755px" y="496.735px" style="font-family:'ArialMT', 'Arial', sans-serif;font-size:15.899px;fill:#494a46;">GenrPopulation</text><text x="140.755px" y="528.004px" style="font-family:'ArialMT', 'Arial', sans-serif;font-size:15.899px;fill:#494a46;">C<tspan x="152.119px 157.295px 166.02px 173.852px 181.683px 190.408px 198.24px 206.964px 212.141px 221.308px 230.902px " y="528.004px 528.004px 528.004px 528.004px 528.004px 528.004px 528.004px 528.004px 528.004px 528.004px 528.004px ">rossover&lt;T&gt;</tspan></text><text x="140.755px" y="559.274px" style="font-family:'ArialMT', 'Arial', sans-serif;font-size:15.899px;fill:#494a46;">M<tspan x="154.271px 163.385px 168.074px 177.188px 181.877px 185.681px 194.795px " y="559.274px 559.274px 559.274px 559.274px 559.274px 559.274px 559.274px ">utation</tspan></text><text x="140.755px" y="590.543px" style="font-family:'ArialMT', 'Arial', sans-serif;font-size:15.899px;fill:#494a46;">NaturalSel<tspan x="215.09px " y="590.543px ">e</tspan>ction</text><text x="140.755px" y="621.812px" style="font-family:'ArialMT', 'Arial', sans-serif;font-size:15.899px;fill:#494a46;">RankingS<tspan x="209.792px " y="621.812px ">o</tspan>rt</text><text x="140.755px" y="653.081px" style="font-family:'ArialMT', 'Arial', sans-serif;font-size:15.899px;fill:#494a46;">R<tspan x="152.071px 160.747px 169.424px 172.79px 181.467px 189.25px 197.927px 211.005px 219.682px 228.358px " y="653.081px 653.081px 653.081px 653.081px 653.081px 653.081px 653.081px 653.081px 653.081px 653.081px ">eplacement</tspan></text><text x="140.755px" y="684.35px" style="font-family:'ArialMT', 'Arial', sans-serif;font-size:15.899px;fill:#494a46;">St<tspan x="155.938px 164.861px 169.359px 172.972px 181.002px 185.5px 197.948px 207.453px 215.483px 224.406px 233.329px 236.942px " y="684.35px 684.35px 684.35px 684.35px 684.35px 684.35px 684.35px 684.35px 684.35px 684.35px 684.35px 684.35px ">atic GATools</tspan></text></g><g transform="matrix(1,0,0,1,-14.3202,0.348971)"><text x="289.56px" y="339.856px" style="font-family:'ArialMT', 'Arial', sans-serif;font-size:15.899px;fill:#494a46;">.IO</text><text x="314.664px" y="339.856px" style="font-family:'ArialMT', 'Arial', sans-serif;font-size:15.899px;fill:#494a46;">(ns)</text></g><g transform="matrix(1,0,0,1,-14.3202,0.348971)"><text x="330.348px" y="402.928px" style="font-family:'ArialMT', 'Arial', sans-serif;font-size:15.899px;fill:#494a46;">I<tspan x="334.377px 346.355px 356.571px 364.132px 371.692px 380.146px 383.29px 394.383px 402.836px 411.29px " y="402.928px 402.928px 402.928px 402.928px 402.928px 402.928px 402.928px 402.928px 402.928px 402.928px ">OExcelRead</tspan></text><text x="330.348px" y="434.197px" style="font-family:'ArialMT', 'Arial', sans-serif;font-size:15.899px;fill:#494a46;">I<tspan x="334.993px 347.588px 355.765px 363.942px 373.012px 376.772px 391.719px 397.241px 401.001px 405.646px " y="434.197px 434.197px 434.197px 434.197px 434.197px 434.197px 434.197px 434.197px 434.197px 434.197px ">OxcelWrite</tspan></text><text x="330.348px" y="465.466px" style="font-family:'ArialMT', 'Arial', sans-serif;font-size:15.899px;fill:#494a46;">IO<tspan x="347.271px 355.29px 364.201px 372.22px 376.706px 388.257px 397.169px " y="465.466px 465.466px 465.466px 465.466px 465.466px 465.466px 465.466px ">TextDat</tspan>a</text><text x="330.348px" y="496.735px" style="font-family:'ArialMT', 'Arial', sans-serif;font-size:15.899px;fill:#494a46;">IO<tspan x="346.937px 358.322px 367.066px 371.386px 380.131px 389.745px 398.49px 401.925px 410.67px " y="496.735px 496.735px 496.735px 496.735px 496.735px 496.735px 496.735px 496.735px 496.735px ">DataFolde</tspan>r</text></g><g transform="matrix(1,0,0,1,-14.3202,0.348971)"><text x="992.279px" y="278.55px" style="font-family:'ArialMT', 'Arial', sans-serif;font-size:15.899px;fill:#494a46;">L<tspan x="1001.38px 1010.47px 1019.57px 1028.66px 1040.39px 1049.49px 1053.28px 1057.95px " y="278.55px 278.55px 278.55px 278.55px 278.55px 278.55px 278.55px 278.55px ">agaUnity</tspan></text><text x="1071.55px" y="278.55px" style="font-family:'ArialMT', 'Arial', sans-serif;font-size:15.899px;fill:#494a46;">(<tspan x="1077.1px 1087.96px 1093.5px 1102.6px 1106.38px 1115.48px 1123.68px " y="278.55px 278.55px 278.55px 278.55px 278.55px 278.55px 278.55px ">Project</tspan></text><text x="1129.98px" y="278.55px" style="font-family:'ArialMT', 'Arial', sans-serif;font-size:15.899px;fill:#494a46;">)</text></g><g transform="matrix(1,0,0,1,-14.3202,0.348971)"><text x="1078.06px" y="345.156px" style="font-family:'ArialMT', 'Arial', sans-serif;font-size:15.899px;fill:#494a46;">Line</text><text x="1078.06px" y="374.665px" style="font-family:'ArialMT', 'Arial', sans-serif;font-size:15.899px;fill:#494a46;">Po<tspan x="1097.37px 1100.83px 1109.61px " y="374.665px 374.665px 374.665px ">int</tspan></text><text x="1078.06px" y="404.174px" style="font-family:'ArialMT', 'Arial', sans-serif;font-size:15.899px;fill:#494a46;">Polygo<tspan x="1126.79px " y="404.174px ">n</tspan></text></g><g transform="matrix(1,0,0,1,-14.3202,0.348971)"><text x="743.324px" y="278.55px" style="font-family:'ArialMT', 'Arial', sans-serif;font-size:15.899px;fill:#494a46;">L<tspan x="752.312px 761.299px 770.286px 779.274px 790.9px 799.888px 803.565px 812.552px 821.54px 826.151px 831.591px 842.34px 847.78px 856.767px 860.444px 869.432px 877.526px " y="278.55px 278.55px 278.55px 278.55px 278.55px 278.55px 278.55px 278.55px 278.55px 278.55px 278.55px 278.55px 278.55px 278.55px 278.55px 278.55px 278.55px ">agaRhino (Project</tspan></text><text x="884.507px" y="278.55px" style="font-family:'ArialMT', 'Arial', sans-serif;font-size:15.899px;fill:#494a46;">)</text></g><g transform="matrix(1,0,0,1,-14.3202,0.348971)"><text x="830.848px" y="345.156px" style="font-family:'ArialMT', 'Arial', sans-serif;font-size:15.899px;fill:#494a46;">Cu<tspan x="851.297px 856.653px 864.665px 873.57px 885.114px 894.019px 898.498px " y="345.156px 345.156px 345.156px 345.156px 345.156px 345.156px 345.156px ">rveData</tspan></text><text x="830.848px" y="374.665px" style="font-family:'ArialMT', 'Arial', sans-serif;font-size:15.899px;fill:#494a46;">LineCurveD<tspan x="914.902px " y="374.665px ">a</tspan>ta</text><text x="830.848px" y="404.174px" style="font-family:'ArialMT', 'Arial', sans-serif;font-size:15.899px;fill:#494a46;">PlaneData</text><text x="830.848px" y="433.683px" style="font-family:'ArialMT', 'Arial', sans-serif;font-size:15.899px;fill:#494a46;">P<tspan x="841.646px 850.682px 854.409px 863.445px 868.056px 879.731px 888.768px 893.379px " y="433.683px 433.683px 433.683px 433.683px 433.683px 433.683px 433.683px 433.683px ">ointData</tspan></text><text x="830.848px" y="463.192px" style="font-family:'ArialMT', 'Arial', sans-serif;font-size:15.899px;fill:#494a46;">Su<tspan x="850.408px 855.759px 860.233px 869.131px 877.137px 886.036px 897.574px 906.473px 910.947px " y="463.192px 463.192px 463.192px 463.192px 463.192px 463.192px 463.192px 463.192px 463.192px ">rfaceData</tspan></text></g><path d="M811.227,351.158l86.686,0l-86.686,0Z" style="fill:none;fill-rule:nonzero;stroke:#434b54;stroke-width:1.77px;stroke-linecap:butt;"/><path d="M811.227,380.663l116.372,0l-116.372,0Z" style="fill:none;fill-rule:nonzero;stroke:#434b54;stroke-width:1.77px;stroke-linecap:butt;"/><path d="M811.227,410.168l84.396,-0l-84.396,-0Z" style="fill:none;fill-rule:nonzero;stroke:#434b54;stroke-width:1.77px;stroke-linecap:butt;"/><path d="M811.227,439.672l81.566,0l-81.566,0Z" style="fill:none;fill-rule:nonzero;stroke:#434b54;stroke-width:1.77px;stroke-linecap:butt;"/><path d="M811.227,469.177l99.136,-0l-99.136,-0Z" style="fill:none;fill-rule:nonzero;stroke:#434b54;stroke-width:1.77px;stroke-linecap:butt;"/></g><text x="22.677px" y="120.206px" style="font-family:'Montserrat-Medium', 'Montserrat';font-weight:500;font-size:20px;fill:#434b54;">C<tspan x="36.797px 50.337px 58.397px 66.357px " y="120.206px 120.206px 120.206px 120.206px ">urre</tspan>nt Ar<tspan x="128.477px 139.757px " y="120.206px 120.206px ">ch</tspan>it<tspan x="166.877px 179.117px 190.677px " y="120.206px 120.206px 120.206px ">ect</tspan>ur<tspan x="220.457px " y="120.206px ">e</tspan> : 20<tspan x="272.697px " y="120.206px ">2</tspan>1</text></svg>