<?xml version="1.0" encoding="UTF-8" standalone="no"?><!DOCTYPE svg PUBLIC "-//W3C//DTD SVG 1.1//EN" "http://www.w3.org/Graphics/SVG/1.1/DTD/svg11.dtd"><svg width="100%" height="100%" viewBox="0 0 76 38" version="1.1" xmlns="http://www.w3.org/2000/svg" xmlns:xlink="http://www.w3.org/1999/xlink" xml:space="preserve" xmlns:serif="http://www.serif.com/" style="fill-rule:evenodd;clip-rule:evenodd;stroke-linejoin:round;stroke-miterlimit:2;"><g><path d="M7.333,21.516c0,0.641 0.539,1.16 1.204,1.16l9.541,0l0,4.451l-15.587,0l0,-23.36l4.842,0l0,17.749Z" style="fill:#f3be19;fill-rule:nonzero;"/><path d="M31.305,27.127c-0.143,-0.321 -0.365,-0.978 -0.475,-1.331c-0.003,-0.008 -0.005,-0.015 -0.007,-0.023c-0.061,-0.194 -0.223,-0.344 -0.427,-0.395c-0.204,-0.051 -0.421,0.005 -0.572,0.147c-0.392,0.368 -0.825,0.683 -1.299,0.944c-0.796,0.439 -1.736,0.658 -2.819,0.658c-1.791,0 -3.195,-0.462 -4.212,-1.388c-1.017,-0.925 -1.526,-2.2 -1.526,-3.826c0,-1.733 0.664,-3.059 1.99,-3.979c1.327,-0.92 3.317,-1.38 5.97,-1.38l2.47,0l0,-1.38c0,-0.855 -0.223,-1.508 -0.671,-1.957c-0.448,-0.449 -1.125,-0.674 -2.031,-0.674c-0.819,0 -1.44,0.179 -1.866,0.538c-0.426,0.358 -0.638,0.869 -0.638,1.532l-3.432,0c-0.387,0 -0.751,-0.18 -0.978,-0.483c-0.226,-0.302 -0.287,-0.692 -0.164,-1.046c0.315,-0.898 0.925,-1.691 1.829,-2.378c1.388,-1.053 3.242,-1.58 5.564,-1.58c2.188,0 3.943,0.516 5.264,1.548c1.321,1.032 1.982,2.543 1.982,4.532l0,7.172c0,0.834 0.064,1.602 0.191,2.302c0.127,0.701 0.376,1.731 0.652,2.447l-4.795,0Zm-4.289,-3.449c0.74,0 1.406,-0.15 1.998,-0.45c0.441,-0.223 0.81,-0.494 1.107,-0.813c0.178,-0.19 0.276,-0.436 0.276,-0.692c0.001,-0.644 0.001,-1.987 0.001,-2.399c0,-0.032 -0.013,-0.064 -0.037,-0.087c-0.024,-0.023 -0.056,-0.036 -0.09,-0.036l-2.343,0c-1.062,0 -1.849,0.244 -2.363,0.73c-0.514,0.487 -0.771,1.094 -0.771,1.821c0,0.589 0.196,1.057 0.588,1.404c0.393,0.348 0.937,0.522 1.634,0.522Z" style="fill:#f3be19;fill-rule:nonzero;"/><path d="M38.194,18.271c0,-2.792 0.605,-5.014 1.816,-6.666c1.21,-1.653 2.948,-2.479 5.215,-2.479c1.028,0 1.915,0.211 2.661,0.634c0.405,0.229 0.782,0.517 1.13,0.865c0.159,0.159 0.397,0.217 0.615,0.151c0.218,-0.067 0.378,-0.247 0.413,-0.465c0.074,-0.46 0.139,-0.864 0.139,-0.864l4.211,0l0,16.846c0,2.332 -0.743,4.166 -2.23,5.503c-1.487,1.337 -3.45,2.437 -6.114,2.437c-1.211,0 -1.473,-0.022 -3.014,-0.324c-1.033,-0.202 -2.139,-0.526 -3.035,-0.964c0,0 0.361,-1.353 0.648,-2.429c0.085,-0.318 0.304,-0.587 0.605,-0.741c0.302,-0.154 0.656,-0.18 0.977,-0.069c0.34,0.119 0.68,0.222 1.02,0.309c0.752,0.193 1.554,0.289 2.405,0.289c1.304,0 2.277,-0.356 2.918,-1.067c0.641,-0.711 0.962,-1.698 0.962,-2.96c0,0 -0.002,-0.033 -0.004,-0.086c-0.007,-0.164 -0.112,-0.308 -0.268,-0.371c-0.157,-0.063 -0.337,-0.034 -0.463,0.076c-0.351,0.302 -0.733,0.549 -1.147,0.742c-0.702,0.326 -1.523,0.489 -2.463,0.489c-2.255,0 -3.985,-0.767 -5.19,-2.302c-1.205,-1.535 -1.807,-3.607 -1.807,-6.217l0,-0.337Zm4.842,0.337c0,1.54 0.26,2.738 0.779,3.594c0.52,0.855 1.388,1.283 2.604,1.283c0.751,0 1.379,-0.125 1.882,-0.377c0.39,-0.195 0.726,-0.469 1.007,-0.823c0.147,-0.183 0.227,-0.408 0.227,-0.64c0.001,-1.431 0.001,-7.225 0.001,-7.225c-0.321,-0.534 -0.732,-0.944 -1.235,-1.227c-0.503,-0.283 -1.12,-0.425 -1.849,-0.425c-1.205,0 -2.076,0.5 -2.612,1.5c-0.536,1 -0.804,2.334 -0.804,4.003l0,0.337Z" style="fill:#f3be19;fill-rule:nonzero;"/><path d="M68.714,27.127c-0.143,-0.321 -0.365,-0.978 -0.475,-1.331c-0.003,-0.008 -0.005,-0.015 -0.007,-0.023c-0.061,-0.194 -0.223,-0.344 -0.427,-0.395c-0.204,-0.051 -0.421,0.005 -0.572,0.147c-0.392,0.368 -0.825,0.683 -1.299,0.944c-0.796,0.439 -1.736,0.658 -2.819,0.658c-1.791,0 -3.195,-0.462 -4.212,-1.388c-1.017,-0.925 -1.526,-2.2 -1.526,-3.826c0,-1.733 0.664,-3.059 1.99,-3.979c1.327,-0.92 3.317,-1.38 5.97,-1.38l2.471,0l0,-1.38c0,-0.855 -0.224,-1.508 -0.672,-1.957c-0.448,-0.449 -1.125,-0.674 -2.031,-0.674c-0.818,0 -1.44,0.179 -1.866,0.538c-0.425,0.358 -0.638,0.869 -0.638,1.532l-3.432,0c-0.387,0 -0.751,-0.18 -0.977,-0.483c-0.227,-0.302 -0.288,-0.692 -0.165,-1.046c0.315,-0.898 0.925,-1.691 1.829,-2.378c1.388,-1.053 3.242,-1.58 5.564,-1.58c2.189,0 3.943,0.516 5.265,1.548c1.321,1.032 1.981,2.543 1.981,4.532l0,7.172c0,0.834 0.064,1.602 0.191,2.302c0.127,0.701 0.376,1.731 0.652,2.447l-4.795,0Zm-4.289,-3.449c0.74,0 1.407,-0.15 1.998,-0.45c0.44,-0.223 0.809,-0.493 1.105,-0.811c0.179,-0.191 0.278,-0.439 0.278,-0.696c0.002,-0.644 0.002,-1.985 0.002,-2.397c0,-0.032 -0.014,-0.064 -0.038,-0.087c-0.024,-0.023 -0.056,-0.036 -0.09,-0.036l-2.343,0c-1.061,0 -1.849,0.244 -2.363,0.73c-0.514,0.487 -0.771,1.094 -0.771,1.821c0,0.589 0.196,1.057 0.588,1.404c0.393,0.348 0.937,0.522 1.634,0.522Z" style="fill:#f3be19;fill-rule:nonzero;"/></g></svg>